<svg xmlns="http://www.w3.org/2000/svg" width="79.252" height="95.862" viewBox="0 0 79.252 95.862"><g transform="translate(-27.421 -5112)"><g transform="translate(0 5112)"><g transform="translate(0 0)"><g transform="translate(27.421 0)"><path d="M134.44,30.284a4.116,4.116,0,1,1,4.119,4.119,4.117,4.117,0,0,1-4.119-4.119" transform="translate(-98.928 -26.17)" fill="#fff"></path><path d="M118.56,31.031a2.973,2.973,0,1,1,2.971,2.976,2.972,2.972,0,0,1-2.971-2.976" transform="translate(-91.224 -27.087)" fill="#fff"></path><path d="M154.51,31.031a2.973,2.973,0,1,1,2.976,2.976,2.976,2.976,0,0,1-2.976-2.976" transform="translate(-108.664 -27.087)" fill="#fff"></path><path d="M105.95,32.045a2.247,2.247,0,1,1,2.245,2.25,2.247,2.247,0,0,1-2.245-2.25" transform="translate(-85.106 -27.931)" fill="#fff"></path><path d="M169.89,32.045a2.245,2.245,0,1,1,2.245,2.25,2.244,2.244,0,0,1-2.245-2.25" transform="translate(-116.125 -27.931)" fill="#fff"></path><path d="M138.746,58.227v48.784c.01.386.113,8.171-8.212,8.171-7.182,0-16.121.278-25.44,3.97-9.319-3.687-18.252-3.97-25.44-3.97-8.331,0-8.228-7.785-8.212-8.171V79.826c0-3.985-5.973-3.985-5.973,0v27.144c-.1,8.053,5.556,14.18,14.185,14.18A70.444,70.444,0,0,1,97.5,122.958a54.358,54.358,0,0,0-10.148,8.022c-2.816,2.822,1.406,7.043,4.227,4.227a46.485,46.485,0,0,1,13.515-9.551,46.634,46.634,0,0,1,13.51,9.551c2.811,2.816,7.038-1.406,4.222-4.227a54.5,54.5,0,0,0-10.143-8.022,70.427,70.427,0,0,1,17.846-1.807c8.629,0,14.288-6.132,14.185-14.18V58.227c0-3.98-5.973-3.98-5.973,0" transform="translate(-65.467 -40.274)" fill="#fff"></path><path d="M128.838,79.576l5.288-9.85V89.338ZM115.2,86.62l-3.717-7.038,3.717-7.023,3.712,7.023ZM96.3,89.343V69.721l5.288,9.855ZM86.32,50.46V108.7h9.932l10.359-20.018,4.876,9.371h7.435l4.891-9.371L134.131,108.7h9.978V50.46h-9.932l-10.37,20.018-4.886-9.36h-7.435l-4.876,9.36L96.3,50.46H86.325Z" transform="translate(-75.583 -37.954)" fill="#fff"></path></g></g></g></g></svg>
